<svg xmlns="http://www.w3.org/2000/svg" version="1.1" xmlns:xlink="http://www.w3.org/1999/xlink" xmlns:svgjs="http://svgjs.com/svgjs" width="1440" height="560" preserveAspectRatio="none" viewBox="0 0 1440 560"><g mask="url(&quot;#SvgjsMask2961&quot;)" fill="none"><rect width="1440" height="560" x="0" y="0" fill="rgba(238, 245, 251, 1)"></rect><circle r="46.666666666666664" cx="515.92" cy="85.46" stroke="rgba(90, 129, 185, 0.27)" stroke-width="2.73" stroke-dasharray="2, 2"></circle><rect width="300" height="300" clip-path="url(&quot;#SvgjsClipPath2962&quot;)" x="1004.77" y="315.28" fill="url(#SvgjsPattern2963)" transform="rotate(342.53, 1154.77, 465.28)"></rect><circle r="91.81287732590074" cx="1215.8" cy="179.43" stroke="rgba(112, 142, 105, 0.21)" stroke-width="1" stroke-dasharray="3, 3"></circle><path d="M519.1800000000001 453.49 L608.46 536.51L615.1488075695848 443.67119243041526z" stroke="rgba(112, 142, 105, 0.21)" stroke-width="1" stroke-dasharray="4, 4"></path><rect width="204" height="204" clip-path="url(&quot;#SvgjsClipPath2964&quot;)" x="955.16" y="50.36" fill="url(#SvgjsPattern2965)" transform="rotate(195.06, 1057.16, 152.36)"></rect><rect width="137.52" height="137.52" clip-path="url(&quot;#SvgjsClipPath2966&quot;)" x="414.18" y="16.67" fill="url(#SvgjsPattern2967)" transform="rotate(342.94, 482.94, 85.43)"></rect><rect width="189" height="189" clip-path="url(&quot;#SvgjsClipPath2968&quot;)" x="585.17" y="355.5" fill="url(#SvgjsPattern2969)" transform="rotate(53.33, 679.67, 450)"></rect><rect width="360" height="360" clip-path="url(&quot;#SvgjsClipPath2970&quot;)" x="42.23" y="264.76" fill="url(#SvgjsPattern2971)" transform="rotate(182.27, 222.23, 444.76)"></rect><path d="M825.93 492.6 L771.67 412.40000000000003L848.8157745716078 402.4842254283921z" stroke="rgba(211, 146, 100, 0.17)" stroke-width="2.23" stroke-dasharray="2, 2"></path><circle r="46.666666666666664" cx="982.88" cy="296.69" fill="rgba(112, 142, 105, 0.21)"></circle><path d="M724.21 219.67L735.41 225.88 731.81 238.17 743.01 244.38 739.41 256.67 750.61 262.88 747.01 275.17M716.81 222.71L728.01 228.92 724.41 241.21 735.61 247.42 732.01 259.71 743.21 265.92 739.61 278.21" stroke="rgba(112, 142, 105, 0.21)" stroke-width="1" stroke-dasharray="4, 4"></path><rect width="266.64" height="266.64" clip-path="url(&quot;#SvgjsClipPath2972&quot;)" x="557.86" y="136.33" fill="url(#SvgjsPattern2973)" transform="rotate(189.1, 691.18, 269.65)"></rect></g><defs><mask id="SvgjsMask2961"><rect width="1440" height="560" fill="#ffffff"></rect></mask><pattern x="0" y="0" width="6" height="6" patternUnits="userSpaceOnUse" id="SvgjsPattern2963"><path d="M3 1L3 5M1 3L5 3" stroke="rgba(90, 129, 185, 0.27)" fill="none" stroke-width="1"></path></pattern><clipPath id="SvgjsClipPath2962"><circle r="75" cx="1154.77" cy="465.28"></circle></clipPath><pattern x="0" y="0" width="6" height="6" patternUnits="userSpaceOnUse" id="SvgjsPattern2965"><path d="M0 6L3 0L6 6" stroke="rgba(112, 142, 105, 0.21)" fill="none"></path></pattern><clipPath id="SvgjsClipPath2964"><circle r="51" cx="1057.16" cy="152.36"></circle></clipPath><pattern x="0" y="0" width="11.46" height="11.46" patternUnits="userSpaceOnUse" id="SvgjsPattern2967"><path d="M0 11.46L5.73 0L11.46 11.46" stroke="rgba(112, 142, 105, 0.21)" fill="none"></path></pattern><clipPath id="SvgjsClipPath2966"><circle r="34.38" cx="482.94" cy="85.43"></circle></clipPath><pattern x="0" y="0" width="13.5" height="13.5" patternUnits="userSpaceOnUse" id="SvgjsPattern2969"><path d="M6.75 1L6.75 12.5M1 6.75L12.5 6.75" stroke="rgba(211, 146, 100, 0.17)" fill="none" stroke-width="4.92"></path></pattern><clipPath id="SvgjsClipPath2968"><circle r="47.25" cx="679.67" cy="450"></circle></clipPath><pattern x="0" y="0" width="6" height="6" patternUnits="userSpaceOnUse" id="SvgjsPattern2971"><path d="M0 6L3 0L6 6" stroke="rgba(211, 146, 100, 0.17)" fill="none"></path></pattern><clipPath id="SvgjsClipPath2970"><circle r="90" cx="222.23" cy="444.76"></circle></clipPath><pattern x="0" y="0" width="6.06" height="6.06" patternUnits="userSpaceOnUse" id="SvgjsPattern2973"><path d="M3.03 1L3.03 5.06M1 3.03L5.06 3.03" stroke="rgba(112, 142, 105, 0.21)" fill="none" stroke-width="1.17"></path></pattern><clipPath id="SvgjsClipPath2972"><circle r="66.66" cx="691.18" cy="269.65"></circle></clipPath></defs></svg>